<svg width="207" height="35" viewBox="0 0 207 35" fill="none" xmlns="http://www.w3.org/2000/svg">
<path d="M81.2109 3.13729C81.2109 1.40293 82.6087 0.000221252 84.3293 0.000221252C86.0558 0.000221252 87.459 1.40293 87.459 3.13729C87.459 4.8697 86.0558 6.27393 84.3293 6.27393C82.6087 6.27393 81.2109 4.86948 81.2109 3.13729Z" fill="#273B7D"/>
<path d="M130.506 24.0045C130.506 22.2695 131.903 20.865 133.623 20.865C135.349 20.865 136.752 22.2695 136.752 24.0045C136.752 25.7351 135.349 27.1411 133.623 27.1411C131.903 27.1411 130.506 25.7354 130.506 24.0045Z" fill="#499FDD"/>
<path d="M29.9334 22.6487C27.2426 22.6487 25.3727 20.5086 25.3727 17.4502C25.3727 14.3924 27.2426 12.2536 29.9334 12.2536C32.6396 12.2536 34.5301 14.3924 34.5301 17.4502C34.5301 20.557 32.679 22.6489 29.9334 22.6489V22.6487ZM29.9334 7.68467C24.2407 7.68467 20.1094 11.7928 20.1094 17.4502C20.1094 23.1076 24.2407 27.2148 29.9334 27.2148C35.6474 27.2148 39.796 23.1076 39.796 17.4502C39.796 11.7928 35.6474 7.68467 29.9334 7.68467ZM75.1588 17.9385C74.9375 17.5215 74.6838 17.1684 74.4135 16.8882L74.2414 16.7052L74.4226 16.5313C74.6839 16.2554 74.951 15.9283 75.2086 15.5491L80.2322 8.06972H74.1337L70.3592 13.9204C70.1455 14.2342 69.7141 14.3924 69.0684 14.3924H68.2081V3.33121C68.2081 1.11875 66.8319 0.817596 65.3452 0.817596H62.8L62.8043 26.9272H68.2081V19.0954H68.7143C69.3303 19.0954 69.7499 19.1667 69.9422 19.5021L72.9231 25.1373C73.7558 26.6664 74.5857 26.9272 76.1468 26.9272H80.288L77.2038 21.8178L75.1588 17.9385ZM101.392 7.64283C98.6436 7.64283 96.8898 8.86575 95.907 9.89997L95.5788 10.2323L95.463 9.78033C95.1743 8.67246 94.2012 8.06296 92.7367 8.06296H90.3148L90.33 26.9207H95.697V18.2292C95.697 17.3794 95.8074 16.642 96.0317 15.9693C96.6291 13.9331 98.2956 12.667 100.378 12.667C102.054 12.667 102.708 13.5524 102.708 15.8407V24.0538C102.708 26.007 103.61 26.9207 105.562 26.9207H108.116L108.107 14.9268C108.107 10.1617 105.787 7.64283 101.394 7.64283H101.392ZM84.3994 8.07124H81.8556L81.873 22.6518H81.8712V26.925H84.5866C84.6207 26.925 84.6481 26.9287 84.6823 26.9287L85.9471 26.925H87.206V26.9176H87.2148L87.2257 10.934C87.2257 9.00543 86.3051 8.07124 84.4013 8.07124H84.3994ZM51.0147 22.6487C48.3241 22.6487 46.4505 20.5086 46.4505 17.4502C46.4505 14.3924 48.3241 12.2536 51.0147 12.2536C53.7152 12.2536 55.611 14.3924 55.611 17.4502C55.611 20.557 53.7605 22.6489 51.0147 22.6489V22.6487ZM51.0147 7.68467C45.3163 7.68467 41.1841 11.7928 41.1841 17.4502C41.1841 23.1076 45.3163 27.2148 51.0147 27.2148C56.7228 27.2148 60.8782 23.1076 60.8782 17.4502C60.8782 11.7928 56.7228 7.68467 51.0147 7.68467Z" fill="#273B7D"/>
<path d="M166.058 22.6487C163.368 22.6487 161.493 20.5086 161.493 17.4502C161.493 14.3924 163.368 12.2536 166.058 12.2536C168.759 12.2536 170.655 14.3924 170.655 17.4502C170.655 20.557 168.804 22.6489 166.058 22.6489V22.6487ZM166.058 7.68467C160.361 7.68467 156.229 11.7928 156.229 17.4502C156.229 23.1076 160.361 27.2148 166.058 27.2148C171.767 27.2148 175.921 23.1076 175.921 17.4502C175.921 11.7928 171.767 7.68467 166.058 7.68467Z" fill="#499FDD"/>
<path d="M119.424 21.8191C116.49 21.8191 115.445 19.2551 115.445 16.8524C115.445 15.7938 115.713 12.3436 119.142 12.3436C120.846 12.3436 123.118 12.8328 123.118 17.03C123.118 20.9888 121.108 21.8191 119.424 21.8191ZM125.904 8.02042C124.886 8.02042 124.102 8.42726 123.709 9.16991L123.561 9.45821L123.312 9.24203C122.446 8.49111 120.892 7.6005 118.37 7.6005C113.351 7.6005 109.973 11.3756 109.973 16.9936C109.973 22.6049 113.469 26.5264 118.471 26.5264C120.18 26.5264 121.53 26.1272 122.6 25.3155L123.014 25.0039V25.5282C123.014 28.0468 121.388 29.4362 118.44 29.4362C117.007 29.4362 115.703 29.0869 114.831 28.77C113.692 28.426 113.025 28.7108 112.563 29.8548L112.137 30.9104L111.534 32.4523L111.908 32.6515C113.795 33.6543 116.251 34.2529 118.471 34.2529C123.042 34.2529 128.379 31.9097 128.379 25.3155L128.398 8.02042H125.905" fill="#273B7D"/>
<path d="M9.94677 22.433L5.57782 22.4287V17.1972C5.57782 16.0791 6.01061 15.4977 6.9673 15.3639H9.94677C12.0734 15.3639 13.4474 16.7074 13.4489 18.8804C13.4474 21.1105 12.1075 22.4317 9.94677 22.433ZM5.57782 8.32058V6.94381C5.57782 5.73876 6.08695 5.16565 7.20421 5.09199H9.43974C11.357 5.09199 12.5054 6.24126 12.5054 8.16368C12.5054 9.6298 11.7193 11.3404 9.51026 11.3404H5.57782V8.32058ZM15.5266 13.5418L14.7367 13.0972L15.4262 12.5067C16.2279 11.8161 17.5722 10.2639 17.5722 7.58186C17.5722 3.47791 14.3939 0.829193 9.47467 0.829193H3.86087V0.827667H3.22171C1.76329 0.881273 0.596396 2.06911 0.580078 3.53893V26.8327H3.15637C3.1629 26.834 3.16509 26.8327 3.16726 26.834L9.58555 26.8327C15.0539 26.8327 18.5835 23.8516 18.5835 19.2341C18.5835 16.7481 17.4427 14.6226 15.5254 13.5418" fill="#273B7D"/>
<path d="M199.897 7.70412C197.67 7.70412 195.518 8.74858 194.135 10.5002L193.747 10.9937L193.441 10.4415C192.448 8.62611 190.737 7.70412 188.358 7.70412C185.863 7.70412 184.19 9.09811 183.412 9.92683L182.904 10.4786L182.708 9.75294C182.424 8.70848 181.496 8.1332 180.089 8.1332H177.834L177.812 26.9179H182.937V18.6257C182.937 17.8994 183.027 17.1805 183.209 16.4291C183.699 14.4254 185.043 12.2703 187.303 12.4858C188.697 12.6196 189.378 13.6985 189.378 15.7821V26.9179H194.54V18.6257C194.54 17.7181 194.624 17.0386 194.829 16.3568C195.244 14.4439 196.648 12.4829 198.829 12.4829C200.407 12.4829 200.99 13.3779 200.99 15.7821V24.1718C200.99 26.0698 201.836 26.9179 203.729 26.9179H206.142L206.146 14.9257C206.146 10.1352 204.04 7.70412 199.896 7.70412H199.897ZM153.262 20.3958C153.247 20.4143 151.041 22.7436 148.137 22.7436C145.492 22.7436 142.819 21.1177 142.819 17.4884C142.819 14.3548 144.891 12.1648 147.857 12.1648C148.821 12.1648 149.916 12.5104 150.088 13.0918L150.113 13.1899C150.508 14.508 151.704 14.5786 151.939 14.5786L154.747 14.5817V12.1232C154.747 8.88042 150.629 7.70434 147.857 7.70434C141.931 7.70434 137.631 11.8368 137.631 17.5278C137.631 23.2164 141.884 27.3433 147.749 27.3433C152.837 27.3433 155.604 23.9933 155.63 23.96L155.778 23.7784L153.554 20.0837L153.262 20.396" fill="#499FDD"/>
</svg>
