<svg width="12" height="11" viewBox="0 0 12 11" fill="none" xmlns="http://www.w3.org/2000/svg">
<path d="M11.9741 6.80467V10.9277H9.584V7.08143C9.584 6.11531 9.23932 5.45555 8.37324 5.45555C7.71352 5.45555 7.32092 5.90031 7.14772 6.33031C7.0842 6.48351 7.06852 6.69675 7.06852 6.91263V10.9278H4.67756C4.67756 10.9278 4.70976 4.41283 4.67756 3.73839H7.06852V4.75751C7.0642 4.76535 7.05724 4.77307 7.05284 4.78091H7.06852V4.75751C7.38624 4.26843 7.95284 3.56943 9.22276 3.56943C10.7956 3.56943 11.9741 4.59735 11.9741 6.80467ZM2.1778 0.273193C1.3596 0.273193 0.825195 0.810233 0.825195 1.51527C0.825195 2.20547 1.34396 2.75723 2.14648 2.75723H2.16128C2.99512 2.75723 3.51388 2.20551 3.51388 1.51527C3.4982 0.810273 2.99512 0.273193 2.1778 0.273193ZM0.967076 10.9278H3.35632V3.73839H0.967076V10.9278Z" fill="#0A7BBA"/>
</svg>
