<svg width="14" height="17" viewBox="0 0 14 17" fill="none" xmlns="http://www.w3.org/2000/svg">
<path d="M4.03305 16.4724C4.4443 15.807 5.04372 14.7376 5.26376 13.8772C5.38722 13.41 5.88926 11.5084 5.88926 11.5084C6.21026 12.1313 7.16501 12.6559 8.17735 12.6559C11.1897 12.6559 13.3625 9.89362 13.3625 6.45916C13.3625 3.16408 10.6629 0.705078 7.19793 0.705078C2.87693 0.705078 0.588867 3.59033 0.588867 6.72966C0.588867 8.19687 1.37076 10.0084 2.6218 10.5903C2.8111 10.6805 2.9181 10.6395 2.95922 10.4592C2.97286 10.4014 3.01054 10.2508 3.05526 10.0719C3.11845 9.81928 3.1957 9.51042 3.23905 9.32804C3.26376 9.22966 3.25551 9.13949 3.17322 9.04116C2.76172 8.54116 2.43247 7.62312 2.43247 6.77066C2.43247 4.57391 4.10326 2.45099 6.95101 2.45099C9.41193 2.45099 11.1321 4.11491 11.1321 6.50016C11.1321 9.1887 9.7658 11.0575 7.98805 11.0575C7.00864 11.0575 6.26789 10.2461 6.50655 9.25424C6.60911 8.83116 6.74399 8.39664 6.87519 7.97399C7.11255 7.20936 7.33785 6.48358 7.33785 5.93458C7.33785 5.17229 6.9263 4.53295 6.07035 4.53295C5.06622 4.53295 4.25964 5.56574 4.25964 6.95099C4.25964 7.82804 4.55593 8.42641 4.55593 8.42641C4.55593 8.42641 3.5683 12.5985 3.38722 13.3772C3.18989 14.237 3.26361 15.4484 3.35402 16.2354C3.57659 16.3222 3.80304 16.4013 4.03305 16.4724Z" fill="#CC2127"/>
</svg>
