<svg width="206" height="52" viewBox="0 0 206 52" fill="none" xmlns="http://www.w3.org/2000/svg">
<path d="M122.903 32.397H123.065L128.402 16.6846H135.518L126.461 39.8482H118.86L109.317 16.6846H117.081L122.903 32.397Z" fill="#37474D"/>
<path d="M81.4992 22.3546H74.5446V29.9678C74.5446 30.6157 74.5446 31.1017 74.7063 31.7496C74.7063 32.2356 74.8681 32.7215 75.1916 33.0455C75.3533 33.3695 75.8385 33.6934 76.3237 33.8554C76.8089 34.0174 77.4558 34.1794 78.2645 34.1794C78.7497 34.1794 79.2349 34.1794 79.8819 34.0174C80.5288 34.0174 81.014 33.6934 81.4992 33.5315V39.5248C80.6905 39.8488 79.7201 40.0108 78.7497 40.1728C77.7793 40.3348 76.9706 40.3348 76.0002 40.3348C74.7063 40.3348 73.4125 40.1728 72.2803 40.0108C71.1482 39.6868 70.1778 39.3629 69.3691 38.8769C68.5604 38.391 67.9135 37.581 67.4283 36.7711C66.9431 35.9612 66.7814 34.8273 66.7814 33.5315V22.5166H61.7676V16.8471H66.7814V9.88184H74.5446V16.6852H81.4992V22.3546Z" fill="#37474D"/>
<path d="M83.6016 16.685H90.7179V20.4107C91.5266 18.9528 92.3352 17.9809 93.4674 17.171C94.4378 16.5231 95.8934 16.0371 97.349 16.0371H98.6429C99.1281 16.0371 99.4515 16.1991 99.775 16.1991V22.6784C99.2898 22.5165 98.8046 22.3545 98.3194 22.3545C97.8342 22.3545 97.349 22.1925 96.7021 22.1925C95.4082 22.1925 94.276 22.3545 93.4674 22.8404C92.6587 23.1644 92.0118 23.8123 91.6883 24.4603C91.2031 25.1082 91.0414 25.9181 90.8796 26.89C90.7179 27.8619 90.7179 28.8338 90.7179 29.9677V39.5247H83.6016V16.685Z" fill="#37474D"/>
<path d="M104.951 14.4171C105.922 14.4171 106.892 14.0931 107.539 13.2832C108.348 12.4733 108.671 11.6633 108.671 10.6914C108.671 9.71954 108.348 8.74764 107.539 8.0997C106.73 7.28979 105.922 6.96582 104.951 6.96582C103.981 6.96582 103.011 7.28979 102.364 8.0997C101.555 8.90962 101.231 9.71954 101.231 10.6914C101.231 11.6633 101.555 12.6352 102.364 13.2832C103.011 13.9311 103.819 14.4171 104.951 14.4171Z" fill="#37474D"/>
<path d="M101.393 16.6846H108.509V39.6862H101.393V16.6846Z" fill="#37474D"/>
<path d="M147.649 29.6431H145.709C144.9 29.6431 144.091 29.8051 143.444 29.9671C142.636 30.1291 141.989 30.453 141.504 30.939C141.018 31.4249 140.695 32.0729 140.695 32.7208C140.695 33.5307 141.018 34.1787 141.827 34.6646C142.474 35.1506 143.283 35.3125 144.091 35.3125C144.738 35.3125 145.385 35.1506 146.032 34.9886C146.679 34.8266 147.326 34.5026 147.811 34.1787C148.296 33.8547 148.782 33.3687 148.943 32.8828C149.267 32.3968 149.428 31.7489 149.428 30.939V29.4811H147.649V29.6431ZM149.267 36.9324C148.458 38.2283 147.326 39.0382 146.032 39.5241C144.738 40.0101 143.283 40.334 141.827 40.334C140.695 40.334 139.724 40.1721 138.754 39.8481C137.784 39.5241 136.813 39.0382 136.166 38.5522C135.358 37.9043 134.872 37.2563 134.387 36.2844C133.902 35.4745 133.74 34.3406 133.74 33.2068C133.74 31.9109 134.064 30.777 134.549 29.8051C135.034 28.8332 135.681 28.1853 136.49 27.5373C137.298 26.8894 138.269 26.4034 139.401 26.0795C140.533 25.7555 141.665 25.4315 142.797 25.2696C143.93 25.1076 145.062 24.9456 146.194 24.9456H149.428C149.428 23.6497 148.943 22.6778 148.135 21.8679C147.164 21.058 146.194 20.734 144.9 20.734C143.768 20.734 142.636 21.058 141.665 21.5439C140.695 22.0299 139.886 22.6778 139.077 23.4877L135.358 19.6001C136.651 18.3043 138.269 17.4943 140.048 16.8464C141.827 16.1985 143.606 15.8745 145.547 15.8745C147.649 15.8745 149.267 16.1985 150.722 16.6844C152.016 17.1704 153.148 17.9803 153.957 18.9522C154.766 19.9241 155.251 21.22 155.574 22.6778C155.898 24.1357 156.06 25.9175 156.06 27.6993V39.3621H149.59V36.9324H149.267Z" fill="#37474D"/>
<path d="M204.741 23.326C204.094 21.8682 203.286 20.5723 202.315 19.4384C201.345 18.3045 200.051 17.4946 198.595 17.0086C197.14 16.3607 195.684 16.1987 194.067 16.1987C192.449 16.1987 190.994 16.5227 189.538 17.0086C188.083 17.6566 186.95 18.4665 185.818 19.4384C184.848 20.5723 183.877 21.7062 183.392 23.326C182.745 24.7839 182.422 26.4037 182.422 28.3475C182.422 30.2913 182.745 31.9112 183.392 33.369C184.039 34.8269 184.848 36.1227 185.818 37.2566C186.789 38.3905 188.083 39.2004 189.538 39.6864C190.994 40.3343 192.449 40.4963 194.067 40.4963C195.684 40.4963 197.14 40.1723 198.595 39.6864C200.051 39.2004 201.183 38.2285 202.315 37.2566C203.286 36.1227 204.256 34.9889 204.741 33.369C205.388 31.9112 205.712 30.2913 205.712 28.3475C205.712 26.4037 205.388 24.7839 204.741 23.326ZM197.948 32.3971C196.978 33.531 195.846 34.0169 194.229 34.0169C192.611 34.0169 191.317 33.531 190.509 32.3971C189.538 31.2632 189.215 29.9674 189.215 28.1855C189.215 26.4037 189.7 25.1078 190.509 23.974C191.479 22.8401 192.611 22.3541 194.229 22.3541C195.846 22.3541 197.14 22.8401 197.948 23.974C198.919 25.1078 199.242 26.4037 199.242 28.1855C199.242 29.9674 198.757 31.4252 197.948 32.3971Z" fill="#37474D"/>
<path d="M174.821 16.8469V19.9246C174.821 19.9246 174.336 19.1147 173.85 18.7907C173.365 18.3048 172.88 17.9808 172.071 17.6568C171.424 17.3329 170.616 17.0089 169.807 16.8469C168.998 16.6849 168.028 16.5229 167.057 16.5229C165.44 16.5229 163.984 16.8469 162.691 17.4949C161.397 18.1428 160.265 18.9527 159.456 20.2486C158.647 21.3825 158.162 22.5163 157.839 24.1362C157.515 25.594 157.353 27.0519 157.353 28.6717C157.353 30.4535 157.677 32.0734 158 33.5312C158.486 34.9891 158.971 36.123 159.779 37.2569C160.75 38.3907 162.044 39.2007 163.338 39.6866C164.793 40.3345 166.249 40.4965 168.028 40.4965C169.16 40.4965 170.292 40.1726 171.424 39.8486C172.718 39.3626 173.85 38.5527 174.174 37.4188V39.6866C174.174 41.3064 173.85 42.6023 172.88 43.7362C171.909 44.8701 170.454 45.356 168.19 45.356C166.734 45.356 165.764 45.356 164.308 45.0321C163.014 44.7081 161.397 44.0602 160.265 43.2502L156.868 48.2717C158.647 49.5676 160.426 50.3775 162.367 51.0255C164.308 51.5114 166.411 51.6734 168.351 51.6734C172.88 51.6734 176.115 50.5395 178.217 48.2717C180.481 46.004 181.29 42.7643 181.29 38.3907V16.8469H174.821ZM173.203 32.3973C172.233 33.5312 171.101 34.0172 169.483 34.0172C167.866 34.0172 166.572 33.5312 165.764 32.3973C164.793 31.2635 164.47 29.9676 164.47 28.1858C164.47 26.404 164.955 25.1081 165.764 23.9742C166.734 22.8403 167.866 22.3544 169.483 22.3544C171.101 22.3544 172.395 22.8403 173.203 23.9742C174.174 25.1081 174.497 26.404 174.497 28.1858C174.497 29.9676 174.012 31.4254 173.203 32.3973Z" fill="#37474D"/>
<path d="M19.8796 44.0596C-0.660686 33.6926 2.41227 15.2265 7.74951 6.96533C6.2939 8.42318 5.00003 10.043 3.70615 11.8248C2.25054 14.2546 -1.30763 20.8959 0.794925 29.1571C2.73574 37.4183 8.55819 43.0877 13.2485 46.1654C20.6883 51.0249 27.9663 52.1588 32.9801 51.8348C40.5816 51.3489 45.5954 46.9753 48.1832 42.9257C49.6388 40.4959 50.4475 38.2282 50.6092 37.4183C49.8005 38.5521 40.0964 54.1026 19.8796 44.0596Z" fill="#C93F1F"/>
<path d="M33.6274 43.5729C33.3039 43.5729 32.9805 43.5729 32.4953 43.7349C28.2902 43.7349 23.5999 42.277 20.3652 40.6572C17.9392 39.3613 14.7045 37.2555 12.2784 34.0158C0.148343 18.3034 15.9983 2.26705 20.3652 0.323242C19.5565 0.485226 18.5861 0.64721 17.4539 0.971177C14.8662 1.7811 11.1463 3.7249 7.74987 6.96457C7.26467 7.61251 6.77946 8.42243 6.29426 9.07036C4.67691 11.5001 1.44222 17.8175 3.2213 25.9167C5.16212 34.0158 10.8228 39.5233 15.3514 42.439C22.6295 47.2985 29.584 48.2704 34.5978 47.9464C42.0376 47.4605 46.8896 43.0869 49.3157 39.3613C49.8009 38.7134 50.1243 38.0654 50.4478 37.4175C50.4478 37.0935 50.6095 36.9315 50.6095 36.9315C50.7713 36.2836 50.933 34.9877 51.0947 34.6638C51.58 31.4241 51.2565 28.1844 50.7713 25.4307C49.9626 31.1001 45.434 42.439 33.6274 43.5729Z" fill="#F39200"/>
<path d="M46.8888 15.5506C46.4036 14.7407 45.7567 13.7687 45.7567 13.6068C45.1097 12.7968 44.4628 11.8249 43.9776 11.177C42.6837 9.55718 40.4194 9.39519 38.8021 10.6911C37.1847 11.9869 37.023 14.2547 38.1551 15.8745C39.6108 17.6564 40.4194 19.1142 41.3898 21.382C41.875 22.3539 42.6837 24.6217 43.1689 27.3754C43.4924 29.8051 43.8159 34.6646 41.2281 38.5522C40.4194 39.8481 38.3169 42.6018 34.2735 43.4117C34.1118 43.4117 33.7883 43.5737 33.4648 43.5737H34.7587C41.2281 43.0878 45.5949 39.3622 47.6975 35.9605C49.3148 33.3688 49.9618 30.777 49.9618 30.777C50.1235 30.1291 50.2852 29.1572 50.2852 28.8332C50.447 27.6993 50.6087 26.5655 50.447 25.4316C50.1235 24.1357 49.9618 23.0018 49.6383 22.0299C49.1531 19.6002 48.021 17.4944 46.8888 15.5506Z" fill="#007DB0"/>
<path d="M10.6606 30.9389C10.1754 29.805 9.69021 28.5091 9.36674 27.2133C8.88153 25.4314 8.7198 20.5719 11.4693 16.5223C14.5422 12.1488 17.9387 9.39505 25.8637 9.23307C28.4514 9.23307 30.3922 7.9372 30.7157 5.34546C31.0392 2.75372 29.2601 0.485951 26.5106 0.161984C25.5402 0 24.5698 0 23.5994 0C23.5994 0 22.3055 0 20.3647 0.323967C17.13 1.61984 12.7632 4.53554 9.85194 9.23307C8.55806 11.3389 5.48511 16.8463 7.26419 24.1356C8.23459 28.1852 10.1754 31.4248 12.4397 34.0166C11.7928 33.0447 11.1458 32.0728 10.6606 30.9389Z" fill="#007DB0"/>
</svg>
