<svg width="13" height="10" viewBox="0 0 13 10" fill="none" xmlns="http://www.w3.org/2000/svg">
<path d="M12.1252 1.18693C11.6967 1.37695 11.2357 1.50547 10.7522 1.56287C11.2458 1.26714 11.6246 0.799215 11.8034 0.240733C11.3416 0.514715 10.8298 0.713473 10.2856 0.820606C9.84955 0.356244 9.22832 0.06604 8.54042 0.06604C7.2206 0.06604 6.15016 1.13648 6.15016 2.4563C6.15016 2.64365 6.17137 2.82601 6.21237 3.00106C4.22587 2.90141 2.4645 1.94987 1.2855 0.503306C1.07979 0.856257 0.961788 1.26714 0.961788 1.70512C0.961788 2.5342 1.38408 3.26613 2.0251 3.69466C1.63346 3.68236 1.26465 3.57487 0.942536 3.39536C0.942358 3.40552 0.942358 3.41568 0.942358 3.42567C0.942358 4.58381 1.76662 5.54979 2.85988 5.76922C2.65952 5.82413 2.44792 5.85318 2.23027 5.85318C2.0759 5.85318 1.92634 5.83839 1.78053 5.81058C2.08463 6.75998 2.96719 7.45109 4.01339 7.47052C3.19518 8.11171 2.16467 8.49372 1.0445 8.49372C0.851981 8.49372 0.661245 8.48249 0.474609 8.4602C1.53186 9.13865 2.78857 9.53421 4.13834 9.53421C8.5349 9.53421 10.9392 5.89204 10.9392 2.73313C10.9392 2.62957 10.9369 2.52636 10.9323 2.42404C11.3997 2.08713 11.8049 1.66626 12.1252 1.18693Z" fill="#55ACEE"/>
</svg>
